#!OML:ASF E:\emotionWalksFemale\Project 1\Capture day 1\Session 1\Female1.ASF
:FULLY-SPECIFIED
:DEGREES
164
root 8.39905 15.1726 41.9313 180.576 -10.2856 -180.501
lowerback 6.04593 2.02484 2.42123
upperback -4.89285 2.84727 0.0316155
thorax -8.43413 1.19804 -1.69067
lowerneck -4.56123 14.9931 8.65529
upperneck 16.6431 19.5627 -2.2666
head 6.92115 9.65764 -0.472816
rclavicle -3.47376e-014 -3.37934e-015
rhumerus -47.4858 10.1767 -88.0628
rradius 38.8967
rwrist 9.07152
rhand -9.85068 -59.3009
rfingers 7.12502
rthumb 16.1274 631.35
lclavicle -3.47376e-014 -3.37934e-015
lhumerus -43.478 -6.81455 89.0764
lradius 42.5916
lwrist -12.9518
lhand -18.9907 -33.978
lfingers 7.12502
lthumb 7.3141 -4.12441
rfemur -6.0892 15.6635 22.6517
rtibia 28.5351
rfoot -25.914 -29.9949
rtoes -6.6118
lfemur -10.5976 -23.6527 -23.315
ltibia 29.9389
lfoot -22.5581 18.0688
ltoes -39.8289
165
root 8.40078 15.1723 41.9313 180.568 -10.4819 -180.473
lowerback 5.8526 2.04317 2.4794
upperback -4.8182 2.87089 0.00682592
thorax -8.23473 1.21117 -1.74223
lowerneck -4.31475 14.94 8.8501
upperneck 16.3116 19.5442 -2.61532
head 6.82694 9.64488 -0.633693
rclavicle -1.00386e-014 2.24627e-014
rhumerus -47.1165 10.1374 -88.2568
rradius 39.0494
rwrist 8.62277
rhand -9.57812 -59.2795
rfingers 7.12502
rthumb 16.3899 631.393
lclavicle -1.00386e-014 2.24627e-014
lhumerus -43.675 -6.47132 88.9927
lradius 42.09
lwrist -13.4017
lhand -19.1304 -32.9525
lfingers 7.12502
lthumb 7.17933 -3.09426
rfemur -6.01571 15.6486 22.7123
rtibia 28.4792
rfoot -26.0327 -30.2423
rtoes -6.3818
lfemur -10.6436 -23.7438 -23.2686
ltibia 29.989
lfoot -22.6155 17.9314
ltoes -39.7634
166
root 8.4028 15.1725 41.9313 180.655 -10.769 -180.462
lowerback 5.65715 2.05457 2.53438
upperback -4.83206 2.88012 -0.0314579
thorax -8.13018 1.21228 -1.80608
lowerneck -3.48583 14.813 9.34905
upperneck 15.4687 19.5168 -3.51924
head 6.55767 9.62345 -1.06112
rclavicle -4.08751e-014 -1.33186e-014
rhumerus -46.9825 10.2952 -88.5864
rradius 39.3254
rwrist 8.00786
rhand -10.023 -59.0323
rfingers 7.12502
rthumb 15.9615 631.605
lclavicle -4.08751e-014 -1.33186e-014
lhumerus -43.8194 -5.74117 88.6986
lradius 41.3921
lwrist -14.1048
lhand -19.6114 -32.9806
lfingers 7.12502
lthumb 6.71498 -3.10707
rfemur -6.0482 15.5452 22.7393
rtibia 28.4578
rfoot -26.0188 -30.6125
rtoes -7.19211
lfemur -10.8121 -23.7809 -23.1736
ltibia 30.0003
lfoot -22.7287 17.5904
ltoes -39.1002
167
root 8.40435 15.1701 41.9318 180.651 -11.0363 -180.435
lowerback 5.61562 2.08183 2.634
upperback -4.85322 2.92204 -0.055041
thorax -8.12091 1.22569 -1.89019
lowerneck -3.072 14.7052 9.61624
upperneck 15.0591 19.4676 -4.15351
head 6.44512 9.58383 -1.33263
rclavicle 6.82328e-014 2.40529e-014
rhumerus -47.0314 10.3314 -88.7764
rradius 39.6294
rwrist 7.88644
rhand -10.501 -58.3049
rfingers 7.12502
rthumb 15.5012 632.296
lclavicle 6.82328e-014 2.40529e-014
lhumerus -44.0417 -5.17528 88.4551
lradius 41.0259
lwrist -13.9032
lhand -18.3634 -32.92
lfingers 7.12502
lthumb 7.91963 -3.08835
rfemur -5.99117 15.395 22.8186
rtibia 28.4702
rfoot -25.9422 -30.9092
rtoes -8.25009
lfemur -10.8458 -23.8456 -23.1145
ltibia 29.9651
lfoot -22.6657 17.3731
ltoes -38.8849
168
root 8.40784 15.1709 41.9303 180.594 -11.2293 -180.499
lowerback 5.58998 2.05967 2.53973
upperback -4.84816 2.88032 -0.0956986
thorax -8.10462 1.21018 -1.87412
lowerneck -3.07535 14.6946 9.74039
upperneck 15.0605 19.4673 -4.31024
head 6.4746 9.57875 -1.3931
rclavicle -4.99446e-015 -2.04748e-014
rhumerus -47.0561 10.4645 -89.1048
rradius 39.9439
rwrist 7.89982
rhand -9.93429 -58.6746
rfingers 7.12502
rthumb 16.0469 631.97
lclavicle -4.99446e-015 -2.04748e-014
lhumerus -44.5298 -4.88198 88.2525
lradius 40.4486
lwrist -15.0643
lhand -16.829 -32.233
lfingers 7.12502
lthumb 9.40034 -2.46258
rfemur -5.83946 15.2349 22.8271
rtibia 28.4765
rfoot -26.0282 -30.9891
rtoes -8.53644
lfemur -10.7209 -24.3691 -23.2437
ltibia 29.9142
lfoot -22.5001 17.8155
ltoes -39.4083
169
root 8.41367 15.173 41.9288 180.621 -11.48 -180.643
lowerback 5.52289 2.05996 2.35379
upperback -4.85034 2.85833 -0.137241
thorax -8.07501 1.20947 -1.8085
lowerneck -3.21379 14.6797 9.52229
upperneck 15.1177 19.4238 -4.09082
head 6.46848 9.55861 -1.29418
rclavicle 2.1419e-014 4.96962e-015
rhumerus -46.98 10.4822 -89.3371
rradius 40.1943
rwrist 7.79757
rhand -9.45956 -59.1861
rfingers 7.12502
rthumb 16.504 631.496
lclavicle 2.1419e-014 4.96962e-015
lhumerus -44.7551 -4.30114 87.9518
lradius 39.9962
lwrist -14.7317
lhand -14.985 -32.5491
lfingers 7.12502
lthumb 11.1792 -2.86696
rfemur -5.76564 15.1807 22.7277
rtibia 28.4662
rfoot -26.2011 -30.8497
rtoes -7.89252
lfemur -10.7112 -24.7968 -23.3977
ltibia 29.8879
lfoot -22.5575 17.978
ltoes -39.1204
170
root 8.41806 15.1727 41.9302 180.619 -11.6658 -180.644
lowerback 5.54412 2.08108 2.31224
upperback -4.87255 2.8839 -0.124134
thorax -8.1129 1.22352 -1.77604
lowerneck -3.3773 14.6975 9.28495
upperneck 15.2992 19.4155 -3.80419
head 6.50032 9.55544 -1.16289
rclavicle 8.67198e-015 -8.15017e-015
rhumerus -46.9655 10.5017 -89.5267
rradius 40.4669
rwrist 7.70832
rhand -9.51742 -59.1689
rfingers 7.12502
rthumb 16.4483 631.508
lclavicle 8.67198e-015 -8.15017e-015
lhumerus -45.0521 -3.96698 87.9824
lradius 38.9743
lwrist -16.3705
lhand -18.5854 -32.2806
lfingers 7.12502
lthumb 7.70538 -2.44098
rfemur -5.7177 15.2285 22.7546
rtibia 28.4189
rfoot -26.253 -30.8027
rtoes -7.59403
lfemur -10.7841 -24.5528 -23.3424
ltibia 29.9027
lfoot -22.6899 17.3526
ltoes -38.5679
171
root 8.421 15.17 41.9316 180.547 -11.7673 -180.589
lowerback 5.63316 2.10833 2.33325
upperback -4.88531 2.9273 -0.100195
thorax -8.17725 1.24301 -1.77211
lowerneck -3.50826 14.7241 9.157
upperneck 15.4488 19.4322 -3.6469
head 6.54243 9.56221 -1.08358
rclavicle 4.39811e-015 7.55382e-015
rhumerus -47.0016 10.5086 -89.7083
rradius 40.7902
rwrist 7.75464
rhand -9.33326 -59.3625
rfingers 7.12502
rthumb 16.6256 631.33
lclavicle 4.39811e-015 7.55382e-015
lhumerus -45.355 -3.48687 87.6677
lradius 38.1206
lwrist -18.1157
lhand -18.9938 -32.9653
lfingers 7.12502
lthumb 7.31117 -3.11162
rfemur -5.61474 15.2006 22.8252
rtibia 28.3222
rfoot -26.3605 -30.7749
rtoes -7.15425
lfemur -10.8036 -24.3317 -23.276
ltibia 29.9826
lfoot -22.7412 16.923
ltoes -38.5458
172
root 8.42518 15.1686 41.9317 180.493 -11.9135 -180.494
lowerback 5.6644 2.13294 2.39901
upperback -4.91216 2.96751 -0.0905449
thorax -8.22024 1.25754 -1.80558
lowerneck -3.54687 14.713 9.1027
upperneck 15.4981 19.4096 -3.58208
head 6.55118 9.55115 -1.05558
rclavicle -3.51352e-014 1.43125e-014
rhumerus -47.0592 10.3936 -89.8841
rradius 41.0155
rwrist 7.95216
rhand -9.11527 -58.8882
rfingers 7.12502
rthumb 16.8355 631.822
lclavicle -3.51352e-014 1.43125e-014
lhumerus -45.6154 -2.97424 87.1041
lradius 37.2977
lwrist -19.3637
lhand -17.6768 -34.4892
lfingers 7.12502
lthumb 8.58226 -4.68368
rfemur -5.51244 15.2168 22.951
rtibia 28.2038
rfoot -26.6252 -30.7258
rtoes -6.19993
lfemur -10.8556 -24.4531 -23.1709
ltibia 30.1226
lfoot -22.7065 17.0113
ltoes -38.6917
173
root 8.42947 15.1713 41.9338 180.588 -12.1106 -180.327
lowerback 5.54406 2.16428 2.56771
upperback -4.99474 3.01613 -0.100488
thorax -8.22816 1.26751 -1.91243
lowerneck -3.48395 14.6969 8.99116
upperneck 15.4591 19.3682 -3.38026
head 6.49379 9.54183 -0.994337
rclavicle 1.1455e-014 3.18055e-015
rhumerus -47.1416 10.3462 -90.1823
rradius 41.1808
rwrist 8.08737
rhand -9.26849 -58.3944
rfingers 7.12502
rthumb 16.688 632.303
lclavicle 1.1455e-014 3.18055e-015
lhumerus -45.8952 -2.7205 86.7272
lradius 36.7391
lwrist -19.7093
lhand -16.9064 -34.9681
lfingers 7.12502
lthumb 9.32568 -5.19441
rfemur -5.55876 15.1284 23.14
rtibia 28.0756
rfoot -26.679 -30.7615
rtoes -6.08986
lfemur -11.1211 -24.6665 -22.9074
ltibia 30.2725
lfoot -22.5501 17.2161
ltoes -39.3131
174
root 8.43385 15.1682 41.9405 180.596 -11.967 -180.266
lowerback 5.53908 2.31761 2.6339
upperback -4.99316 3.22661 -0.124283
thorax -8.2085 1.36636 -1.99937
lowerneck -3.5084 14.7071 8.86709
upperneck 15.4175 19.3652 -3.20483
head 6.45397 9.5481 -0.928266
rclavicle -3.89121e-014 -7.35503e-015
rhumerus -47.118 10.3485 -90.4636
rradius 41.364
rwrist 8.18664
rhand -9.32806 -58.6216
rfingers 7.12502
rthumb 16.6306 632.071
lclavicle -3.89121e-014 -7.35503e-015
lhumerus -46.2282 -2.74645 86.6493
lradius 36.6157
lwrist -19.8331
lhand -16.4699 -34.4435
lfingers 7.12502
lthumb 9.74683 -4.68902
rfemur -5.60098 15.1273 23.1734
rtibia 27.9872
rfoot -26.4684 -30.6448
rtoes -5.83634
lfemur -11.1996 -24.8388 -22.848
ltibia 30.382
lfoot -22.5929 17.5335
ltoes -39.4208
